<svg id="Слой_1" xmlns="http://www.w3.org/2000/svg" width="271" height="236" viewBox="0 0 271 236"><style>.st0{fill:#fff}</style><g id="Document" transform="scale(1 -1)"><g id="Spread" transform="translate(0 -841.891)"><path class="st0" d="M78.7 784.6V814c0 2 1.7 3.7 3.8 3.7h43.3c2.1 0 3.8-1.6 3.8-3.7v-29.4c0-2-1.7-3.7-3.8-3.7H82.5c-2.1 0-3.8 1.6-3.8 3.7zm48.8.1v30.2c0 1-.9 1.9-1.9 1.9h-44c-1.1 0-1.9-.8-1.9-1.9v-30.2c0-1 .9-1.9 1.9-1.9h44c1.1 0 1.9.9 1.9 1.9zm-43.8 3.1v22.9c0 1.7 1.4 3 3.1 3h32.6c1.7 0 3.1-1.4 3.1-3v-22.9c0-1.7-1.4-3-3.1-3H86.8c-1.7 0-3.1 1.3-3.1 3zm36.9.1v23.7c0 .7-.6 1.2-1.3 1.2H87c-.7 0-1.3-.6-1.3-1.2v-23.7c0-.7.6-1.2 1.3-1.2h32.3c.7 0 1.3.6 1.3 1.2zm-31.9 2.2v2.9c0 .8.7 1.4 1.5 1.4h2c.8 0 1.5-.6 1.5-1.4v-2.9c0-.8-.7-1.4-1.5-1.4h-2c-.9-.1-1.5.6-1.5 1.4zm7.9 0v2.9c0 .8.7 1.4 1.5 1.4h2c.8 0 1.5-.6 1.5-1.4v-2.9c0-.8-.7-1.4-1.5-1.4h-2c-.8-.1-1.5.6-1.5 1.4zm-4.9.5v1.9h-2v-1.9h2zm7.9 0v1.9h-2v-1.9h2zm25 1.2c-.6 0-1 .4-1 1v2.1c0 .5.4 1 1 1 .5 0 1-.4 1-1v-2.1c-.1-.5-.5-1-1-1zm-35.9 6v2.9c0 .8.7 1.4 1.5 1.4h2c.8 0 1.5-.6 1.5-1.4v-2.9c0-.8-.7-1.4-1.5-1.4h-2c-.9 0-1.5.6-1.5 1.4zm7.9 0v2.9c0 .8.7 1.4 1.5 1.4h2c.8 0 1.5-.6 1.5-1.4v-2.9c0-.8-.7-1.4-1.5-1.4h-2c-.8 0-1.5.6-1.5 1.4zm8 0v2.9c0 .8.7 1.4 1.5 1.4h2c.8 0 1.5-.6 1.5-1.4v-2.9c0-.8-.7-1.4-1.5-1.4h-2c-.8 0-1.5.6-1.5 1.4zm8 0v2.9c0 .8.7 1.4 1.5 1.4h2c.8 0 1.5-.6 1.5-1.4v-2.9c0-.8-.7-1.4-1.5-1.4h-2c-.8 0-1.5.6-1.5 1.4zm-30.9-.8c-.6 0-1 .4-1 1v2.1c0 .5.4 1 1 1 .5 0 1-.4 1-1V798c0-.6-.5-1-1-1zm42.9 0c-.6 0-1 .4-1 1v2.1c0 .5.4 1 1 1 .5 0 1-.4 1-1V798c-.1-.6-.5-1-1-1zm-32.9 1.3v1.9h-2v-1.9h2zm7.9 0v1.9h-2v-1.9h2zm8 0v1.9h-2v-1.9h2zm8 0v1.9h-2v-1.9h2zm9 3.9c-.6 0-1 .4-1 1v2.1c0 .5.4 1 1 1 .5 0 1-.4 1-1v-2.1c-.1-.5-.5-1-1-1zm-35.9 3.4v2.9c0 .8.7 1.4 1.5 1.4h2c.8 0 1.5-.6 1.5-1.4v-2.9c0-.8-.7-1.4-1.5-1.4h-2c-.9-.1-1.5.6-1.5 1.4zm7.9 0v2.9c0 .8.7 1.4 1.5 1.4h2c.8 0 1.5-.6 1.5-1.4v-2.9c0-.8-.7-1.4-1.5-1.4h-2c-.8-.1-1.5.6-1.5 1.4zm8 0v2.9c0 .8.7 1.4 1.5 1.4h2c.8 0 1.5-.6 1.5-1.4v-2.9c0-.8-.7-1.4-1.5-1.4h-2c-.8-.1-1.5.6-1.5 1.4zm8 0v2.9c0 .8.7 1.4 1.5 1.4h2c.8 0 1.5-.6 1.5-1.4v-2.9c0-.8-.7-1.4-1.5-1.4h-2c-.8-.1-1.5.6-1.5 1.4zm-20.9.5v1.9h-2v-1.9h2zm7.9 0v1.9h-2v-1.9h2zm8 0v1.9h-2v-1.9h2zm8 0v1.9h-2v-1.9h2zm38.8-10.9v42c0 2 1.7 3.7 3.8 3.7h23.3c2.1 0 3.8-1.6 3.8-3.7v-42c0-2-1.7-3.7-3.8-3.7h-23.3c-2.1 0-3.8 1.7-3.8 3.7zm28.9-.9v42.8c0 1-.9 1.9-1.9 1.9h-23.1c-1.1 0-1.9-.8-1.9-1.9v-42.8c0-1 .9-1.9 1.9-1.9h23.1c1.1.1 1.9.9 1.9 1.9zm-20.4.1c-.6 0-1 .4-1 1 0 .5.4 1 1 1h2.1c.5 0 1-.4 1-1 0-.5-.4-1-1-1h-2.1zm5.3 0c-.6 0-1 .4-1 1 0 .5.4 1 1 1h2.1c.5 0 1-.4 1-1 0-.5-.4-1-1-1h-2.1zm5.4 0c-.6 0-1 .4-1 1 0 .5.4 1 1 1h2.1c.5 0 1-.4 1-1 0-.5-.4-1-1-1h-2.1zm-16.2 6V832c0 1.7 1.4 3 3.1 3h16.6c1.7 0 3.1-1.4 3.1-3v-31.7c0-1.7-1.4-3-3.1-3h-16.6c-1.7 0-3.1 1.4-3.1 3.1zm20.9.1v31.4c0 .7-.6 1.2-1.3 1.2h-16.4c-.7 0-1.3-.6-1.3-1.2v-31.4c0-.7.6-1.2 1.3-1.2H177c.8 0 1.3.5 1.3 1.2zm-11.7 6.2c-.8 0-1.5.2-2.2.5-1.1.6-2.1 1.7-3.1 3.1-.2.3-.2.7 0 1l2.9 4.2c.3.5 1.1.5 1.5.1.5-.6 1.1-1 1.5-1.2.2-.1.4-.1.6 0l.2.2 2.5 4.3.2.4c.3.8.2.9.1 1-.1.1-.2.2-.6.4-.4.2-.8.4-1.4.6-.5.2-.7.8-.4 1.2l2.5 4.8c.2.4.6.6 1.1.5 2.5-.6 4.6-1.6 5.1-3.9.5-2.1-.4-5-2.5-9.1-2.3-4.2-4.4-7-6.7-7.8-.4-.2-.9-.3-1.3-.3zm-16.4.8h-.2c-5.6 1.3-8.3 6.3-8.2 11 0 4.7 2.8 9.6 8.3 10.5.5.1 1-.2 1.1-.7s-.2-1-.8-1.1c-4.4-.8-6.7-4.6-6.8-8.7 0-4.1 2.3-8.2 6.8-9.3.5-.1.8-.6.7-1.1-.1-.4-.5-.7-.9-.6zm38.9 0c-.4 0-.8.3-.9.7-.1.5.2 1 .7 1.1 4.5 1.1 6.8 5.1 6.8 9.3 0 4.1-2.3 8-6.8 8.7-.5.1-.8.6-.8 1.1.1.5.6.8 1.1.7 5.5-1 8.3-5.8 8.3-10.5s-2.7-9.7-8.2-11c-.1-.1-.2-.1-.2-.1zm-22.8 1c.3 0 .7 0 1 .2 1.5.6 3.4 2.7 5.7 7 2.2 4.1 2.7 6.5 2.4 7.9-.3 1.1-1.1 1.8-2.9 2.4h-.1l-1.7-3.3.6-.3c.4-.2.9-.5 1.2-.9.8-.9.5-2.1-.1-3.3l-2.6-4.4v-.1c-.8-1.2-2-1.3-3.1-.9-.4.2-.9.4-1.3.8l-.2.1-1.9-2.8.3-.4c.6-.8 1.3-1.3 1.8-1.6.2-.2.5-.3.9-.4zm-15.7 2.9h-.2c-3.6.9-5.3 4-5.3 7 0 3.1 1.8 6.1 5.3 6.7.5.1 1-.2 1.1-.7s-.2-1-.8-1.1c-2.5-.4-3.8-2.7-3.8-4.9 0-2.3 1.3-4.6 3.8-5.2.5-.1.8-.6.7-1.1.1-.5-.3-.7-.8-.7zm38 0c-.4 0-.8.3-.9.7-.1.5.2 1 .7 1.1 2.6.6 3.8 2.9 3.8 5.2s-1.3 4.5-3.8 4.9c-.5.1-.8.6-.8 1.1.1.5.6.8 1.1.7 3.5-.6 5.3-3.6 5.3-6.7 0-3-1.7-6.2-5.3-7h-.1zm-8.4 24.7c-.6 0-1 .4-1 1 0 .5.4 1 1 1h2.1c.5 0 1-.4 1-1 0-.5-.4-1-1-1h-2.1zM21.9 792.5c-.5 0-.9.4-.9.9v3c0 .5.4.9.9.9h9v4.8H15.8c-2.1 0-3.8 1.6-3.8 3.7v29.4c0 2 1.7 3.7 3.8 3.7H59c2.1 0 3.8-1.6 3.8-3.7v-29.4s-1.6-3.7-3.6-3.7H43.9v-3.9h10c.5 0 .9-.4.9-.9v-4c0-.5-.4-.9-.9-.9h-32v.1zm30.9 1.9v1.9h-9.2l-.1-.5c-.1 0-.1 0-.2.5H31.5c-.1-.5-.1-.5-.2-.5l-.1.5H23v-1.9h29.8zm-9.9 3.9v3.9h-10v-3.9h10zm17.9 7.7v30.2c0 1-.9 1.9-1.9 1.9h-44c-1.1 0-1.9-.8-1.9-1.9V806c0-1 .9-1.9 1.9-1.9h44c1.1 0 1.9.8 1.9 1.9zm-26.8-.9c-.6 0-1 .4-1 1 0 .5.4 1 1 1h7c.5 0 1-.4 1-1 0-.5-.4-1-1-1h-7zM16 812v21c0 1.7 1.4 3 3.1 3h36.6c1.7 0 3.1-1.4 3.1-3v-21c0-1.7-1.4-3-3.1-3H19.1c-1.7-.1-3.1 1.3-3.1 3zm40.8.1v20.8c0 .7-.6 1.2-1.3 1.2H19.2c-.7 0-1.3-.6-1.3-1.2v-20.8c0-.7.6-1.2 1.3-1.2h36.3c.8 0 1.3.5 1.3 1.2zm-25.4 6.8c-.2 0-.5.1-.6.3l-3.7 3.6-2-1.6c-.5-.4-1.3-.2-1.5.4l-3.2 8.9c-.2.7.4 1.3 1.1 1.2l9.6-2.2c.7-.2.9-.9.5-1.4l-1.5-1.8 4-3.7c.4-.4.4-.9 0-1.3l-2-1.9c-.2-.4-.5-.5-.7-.5zm0 2.2l.7.6-3.9 3.6c-.3.3-.4.9-.1 1.2l1.1 1.3-6.5 1.5 2.2-6 1.6 1.3c.4.3.9.3 1.3 0l3.6-3.5zM219 780c-2.1 0-3.8 1.6-3.8 3.7v1.9l-.1.5.1.3v20c0 2 1.7 3.7 3.8 3.7h2.8c0 5.2 3.9 6.9 8.4 7.1 4.1.2 9.1-.7 11.7-.7 2.1 0 3.4.5 4 1s.8 1.2.6 2c-.2.8-.8 1.3-1.9 1.4-1.2.2-2.7.1-4.4-.2-1.7-.2-3.6-.5-5.2-.5s-3.3.3-4.5 1.4c-1.8 1.8-1 3.9.5 5.6.7.7 1.5 1.4 2.2 1.8.7.4 1.5.8 2.1.9h.1c.5 0 1-.4 1-.9s-.4-.9-.9-1h-.1c-.1 0-.6-.2-1.2-.6-.6-.4-1.3-.9-1.9-1.5-.7-.8-1.6-2-.6-3.1.6-.6 1.7-.9 3.2-.9s3.2.3 5 .5c1.7.2 3.5.4 5 .1 1.6-.3 2.9-1 3.4-2.8.4-1.4 0-2.8-1.1-3.8s-2.9-1.5-5.3-1.5c-2.9 0-7.6.9-11.6.7-3.4-.2-6.6-1.1-6.6-5.3h39.6c2.1 0 3.8-1.6 3.8-3.7v-22.7c0-2-1.7-3.7-3.8-3.7H219v.3zm45.3 1.9c.9 0 1.6.6 1.9 1.3v.1l-.5-.2c-.5-.2-.9-.2-1.5-.2h-45.5c-.5 0-1 .1-1.5.2l-.4.2c.2-.8 1-1.3 1.9-1.3l45.6-.1zm-1.2 2.9c.6 0 1 .2 1.4.5.3.3.5.6.5 1v19.9c0 1-.9 1.9-1.9 1.9h-44c-1.1 0-1.9-.8-1.9-1.9V786l.1-.3c.1-.2.2-.3.4-.5.3-.3.8-.5 1.4-.5l44 .1zm-42.3 1.9c-.8 0-1.6.6-1.6 1.5v2.8c0 .9.8 1.5 1.6 1.5h2.8c.8 0 1.6-.6 1.6-1.5v-2.8c0-.9-.8-1.5-1.6-1.5h-2.8zm7.8 0c-.8 0-1.5.6-1.5 1.5v2.8c0 .9.7 1.5 1.5 1.5h24.9c.8 0 1.5-.6 1.5-1.5v-2.8c0-.9-.7-1.5-1.5-1.5h-24.9zm30 0c-.8 0-1.6.6-1.6 1.5v2.8c0 .9.8 1.5 1.6 1.5h2.8c.8 0 1.6-.6 1.6-1.5v-2.8c0-.9-.8-1.5-1.6-1.5h-2.8zm-35.5 2v1.9h-2v-1.9h2zm29.9 0v1.9h-23.9v-1.9H253zm8 0v1.9h-2v-1.9h2zm-40.2 4.8c-.8 0-1.6.6-1.6 1.5v2.8c0 .9.8 1.5 1.6 1.5h2.8c.8 0 1.6-.6 1.6-1.5V795c0-.9-.8-1.5-1.6-1.5h-2.8zm7.9 0c-.8 0-1.6.6-1.6 1.5v2.8c0 .9.8 1.5 1.6 1.5h2.8c.8 0 1.6-.6 1.6-1.5V795c0-.9-.8-1.5-1.6-1.5h-2.8zm7 0c-.8 0-1.6.6-1.6 1.5v2.8c0 .9.8 1.5 1.6 1.5h2.8c.8 0 1.6-.6 1.6-1.5V795c0-.9-.8-1.5-1.6-1.5h-2.8zm7 0c-.8 0-1.6.6-1.6 1.5v2.8c0 .9.8 1.5 1.6 1.5h2.8c.8 0 1.6-.6 1.6-1.5V795c0-.9-.8-1.5-1.6-1.5h-2.8zm8 0c-.8 0-1.6.6-1.6 1.5v2.8c0 .9.8 1.5 1.6 1.5h2.8c.8 0 1.6-.6 1.6-1.5V795c0-.9-.8-1.5-1.6-1.5h-2.8zm7.9 0c-.8 0-1.6.6-1.6 1.5v2.8c0 .9.8 1.5 1.6 1.5h2.8c.8 0 1.6-.6 1.6-1.5V795c0-.9-.8-1.5-1.6-1.5h-2.8zm-35.5 1.9v1.9h-2v-1.9h2zm8 0v1.9h-2v-1.9h2zm7 0v1.9h-2v-1.9h2zm7 0v1.9h-2v-1.9h2zm7.9 0v1.9h-2v-1.9h2zm8 0v1.9h-2v-1.9h2zm-40.2 4.9c-.8 0-1.6.6-1.6 1.5v2.8c0 .9.8 1.5 1.6 1.5h2.8c.8 0 1.6-.6 1.6-1.5v-2.8c0-.9-.8-1.5-1.6-1.5h-2.8zm7.9 0c-.8 0-1.6.6-1.6 1.5v2.8c0 .9.8 1.5 1.6 1.5h2.8c.8 0 1.6-.6 1.6-1.5v-2.8c0-.9-.8-1.5-1.6-1.5h-2.8zm7 0c-.8 0-1.6.6-1.6 1.5v2.8c0 .9.8 1.5 1.6 1.5h2.8c.8 0 1.6-.6 1.6-1.5v-2.8c0-.9-.8-1.5-1.6-1.5h-2.8zm7 0c-.8 0-1.6.6-1.6 1.5v2.8c0 .9.8 1.5 1.6 1.5h2.8c.8 0 1.6-.6 1.6-1.5v-2.8c0-.9-.8-1.5-1.6-1.5h-2.8zm8 0c-.8 0-1.6.6-1.6 1.5v2.8c0 .9.8 1.5 1.6 1.5h2.8c.8 0 1.6-.6 1.6-1.5v-2.8c0-.9-.8-1.5-1.6-1.5h-2.8zm7.9 0c-.8 0-1.6.6-1.6 1.5v2.8c0 .9.8 1.5 1.6 1.5h2.8c.8 0 1.6-.6 1.6-1.5v-2.8c0-.9-.8-1.5-1.6-1.5h-2.8zm-35.5 1.9v1.9h-2v-1.9h2zm8 0v1.9h-2v-1.9h2zm7 0v1.9h-2v-1.9h2zm7 0v1.9h-2v-1.9h2zm7.9 0v1.9h-2v-1.9h2zm8 0v1.9h-2v-1.9h2zM26.9 744.8c-.5 0-.9.4-.9.9v2.5s1 .9 1.6.5H39v3.9H28c-1.7 0-2.9 1.5-2.9 3.1v22c0 1.6 1.2 3.1 2.9 3.1h31c1.7 0 2.9-1.5 2.9-3.1v-22s-.8-3.1-2.5-3H48.9v-2.9h11c.5 0 .9-.4.9-.9v-3c0-.5-.4-.9-.9-.9h-33v-.2zm-18 0c-1.7 0-2.9 1.5-2.9 3v29.7c0 1.6 1.2 3 2.9 3H19c1.7 0 2.9-1.5 2.9-3v-29.7c0-1.6-1.2-3-2.9-3H8.9zm55.2-4.3c-.5 0-.9.4-.9.9-.2 3.4 1.9 5.4 4.2 5.4 2.3 0 4.4-2 4.3-5.4 0-.5-.4-.9-.9-.9h-6.7zm-5.3 6.3v1H27.9v-1h30.9zm-39.9 0c.5 0 1.1.5 1.1 1.3v12.3H8V748c0-.8.6-1.3 1.1-1.3l9.8.1zm50.8-4.4l-.1.4c-.3 1.6-1.4 2.3-2.3 2.3-.6 0-1.1-.2-1.6-.8-.3-.4-.6-1-.7-1.8h4.7v-.1zm-55.9 6.3c-.6 0-1 .4-1 1 0 .5.4 1 1 1h1.3c.5 0 1-.4 1-1 0-.5-.4-1-1-1h-1.3zm33.1 1v2.9h-7v-2.9h7zm11.8 4.8c.5 0 1.1.5 1.1 1.2v21.7c0 .8-.6 1.2-1.1 1.2H28c-.5 0-1.1-.5-1.1-1.2v-21.7c0-.8.6-1.2 1.1-1.2h30.7zm-28.3 1.9c-1.5 0-2.5 1.2-2.5 2.6v16.1c0 1.3 1 2.6 2.5 2.6h25.9c1.5 0 2.5-1.2 2.5-2.6V759c0-1.3-1-2.6-2.5-2.6H30.4zm25.8 2c.3 0 .6.3.6.8V775c0 .5-.4.8-.6.8H30.5c-.3 0-.6-.3-.6-.8v-15.9c0-.5.4-.8.6-.8h25.7v.1zM20 762.2v2.9H8v-2.9h12zm0 4.9v3.9H8v-3.9h12zm0 4.8v5.5c0 .8-.6 1.2-1.1 1.2H9c-.5 0-1.1-.5-1.1-1.2v-5.5H20zm-9.4 2.9c-.6 0-1 .4-1 1 0 .5.4 1 1 1h1.3c.5 0 1-.4 1-1 0-.5-.4-1-1-1h-1.3zm6.4 0c-.6 0-1 .4-1 1 0 .5.4 1 1 1h1.3c.5 0 1-.4 1-1 0-.5-.4-1-1-1H17zm169.2-37.5c-.3 0-.5.1-.7.3-.4.4-.3 1 .1 1.4l2.2 2h-10.1c-3.3 0-6.3 2-6.3 6.1v14.2c0 .5.4 1 1 1 .5 0 1-.4 1-1v-14.2c0-2.8 1.9-4.2 4.3-4.2h10.2l-2.5 1.9c-.4.3-.5.9-.2 1.4.3.4 1 .5 1.4.1l4.5-3.5c.5-.4.5-1.1.1-1.5l-4.2-3.8c-.3-.1-.5-.2-.8-.2zm-43.6 3.7c-.6 0-1 .4-1 1 0 .5.4 1 1 1h15.5c2.4 0 4.3 1.3 4.3 4.2v12.3l-2-2.4c-.2-.3-.5-.4-.9-.4-.2 0-.4.1-.5.2-.4.3-.5.9-.2 1.4l3.6 4.3c.4.5 1.1.5 1.5.1l3.9-4.1c.4-.4.3-1-.1-1.4-.4-.4-1-.3-1.4.1l-2 2.1v-12.2c0-4.1-3-6.1-6.3-6.1l-15.4-.1zm16.4 10.7l-.5.2c-2.5 1-4.6 2.7-6.1 5l-.5.9-.5-.1h-.1c-.5-.1-1-.1-1.5-.1-4.3 0-7.7 3.3-7.7 7.4 0 4.1 3.5 7.4 7.7 7.4l.8-.1.3.8c1 2.5 3.6 4.3 6.6 4.3.5 0 1 0 1.4-.1l1-.3.7.8c2 2.2 5 3.6 8.3 3.6 4.2 0 7.8-2.2 9.6-5.5h.7c2.6 0 4.9-1.1 6.5-2.8l.3-.3.7.1c4.7.7 7.5-2.1 8.3-5.2.7-3-.4-6.8-3.9-7.5h-.2v-.1c-1.3-1.8-3.4-3-5.9-3-.5 0-1 0-1.4.1l-.6.2-.2-.5c-1.2-1.9-3.1-3.2-5.3-3.8l-.3-.1c-.7 0-1.1 1.6.1 1.9l.2.1c1.6.5 2.9 1.6 3.8 2.9l.5.9v.1c.2.5.8.7 1.3.5h.1l1-.3c.3-.1.7-.1 1.1-.1 1.4 0 2.6.5 3.5 1.3l.8.9.2.3c.1.3.4.4.7.5 2.5.2 3.7 2.7 3 5.4-.6 2.3-2.6 4.4-6.3 3.9l-.7-.1-.3-.1c-.4-.1-.9 0-1.1.4v.1c-1.2 1.7-3.3 2.8-5.6 2.8h-.7l-.4-.1c-.4-.1-.8.1-1 .5l-.3.5-.6 1c-1.7 2.2-4.3 3.6-7.4 3.6-2.8 0-5.2-1.2-6.9-3l-.7-.8-.2-.4c-.3-.4-.8-.5-1.2-.3l-.3.1-1 .3c-.3.1-.7.1-1.1.1-2.2 0-4.1-1.3-4.9-3.1l-.3-.8-.1-.5c-.1-.5-.6-.9-1.1-.7h-.1l-1.2.1c-3.3 0-5.9-2.5-5.9-5.6s2.6-5.6 5.9-5.6l1.1.1 1.1.3c.4.1.7 0 1-.3l.2-.2c1-2.3 3-4.2 5.4-5.3l.5-.2c1-.8.7-2.4-.3-2.4zm4 10.6c-1.9 0-3.5 1.5-3.5 3.4s1.6 3.4 3.5 3.4 3.5-1.5 3.5-3.4-1.6-3.4-3.5-3.4zm9.5 0c-1.9 0-3.5 1.5-3.5 3.4s1.6 3.4 3.5 3.4 3.5-1.5 3.5-3.4-1.6-3.4-3.5-3.4zm-9.5 1.8c.9 0 1.6.7 1.6 1.6 0 .9-.7 1.6-1.6 1.6-.9 0-1.6-.7-1.6-1.6s.7-1.6 1.6-1.6zm9.5 0c.9 0 1.6.7 1.6 1.6 0 .9-.7 1.6-1.6 1.6-.9 0-1.6-.7-1.6-1.6s.7-1.6 1.6-1.6zm64-41.3c-.1 0-.2 0-.2.1l-5.4 2.1c-.3.1-.5.5-.5.8l.5 3.3-.6.6-.8.8-3.4-.6c-.3-.1-.7.1-.8.4l-2.3 5.2c-.1.3 0 .7.2.9l2.9 2v1.8l-2.9 2c-.3.2-.4.6-.3.9l2.2 5.2c.1.3.5.5.8.4l3.6-.6.7.7.6.5-.6 3.5c-.1.3.1.7.4.8l5.4 2.2c.3.1.7 0 .9-.2l2.1-2.8c.5 0 1.1.1 1.6 0h.2l2.1 2.8c.2.3.6.4.9.3l5.4-2.1c.3-.1.5-.5.5-.8l-.5-3.3.9-.8.6-.6 3.4.6c.3.1.7-.1.8-.4l2.3-5.2c.1-.3 0-.7-.2-.9l-2.7-1.9.1-.9v-1.2l2.7-1.8c.3-.2.4-.6.3-.9l-2.2-5.2c-.1-.3-.5-.5-.8-.4l-3.2.5-.6-.7c-.3-.3-.6-.6-1-.9l.5-3.1c.1-.3-.1-.7-.4-.8l-5.4-2.2c-.3-.1-.7 0-.9.2l-1.9 2.6-1-.1h-1.3l-1.9-2.6c-.1-.1-.2-.2-.4-.3-.3.1-.4.1-.4.1zm-.3 1.6l1.8 2.5c.2.2.4.3.7.3h.4c.8-.1 1.5-.1 2.3 0h.1c.3 0 .5-.1.7-.3l1.8-2.4 4.3 1.8-.5 2.9c0 .3.1.5.3.7l.3.3c.6.5 1.1 1 1.6 1.6l.1.1c.2.2.4.3.7.3l3-.5 1.7 4.2-2.5 1.7c-.2.1-.3.4-.3.7v.4c0 .7 0 1.4-.1 2.1v.1c0 .3.1.5.3.7l2.5 1.8-1.8 4.1-3.2-.5c-.3 0-.5.1-.7.3-.5.6-1 1.1-1.6 1.5l-.3.2c-.2.2-.3.4-.3.7l.5 3.2-4.3 1.7-2-2.7c-.1-.2-.4-.3-.7-.3h-2.4c-.3 0-.5.1-.7.3l-2 2.7-4.3-1.8.6-3.3c0-.2 0-.5-.2-.7-.6-.4-1.1-.9-1.5-1.5l-.1-.1c-.2-.2-.4-.3-.7-.3l-3.4.5-1.7-4.2 2.8-1.9c.2-.1.3-.4.3-.6-.1-.8-.1-1.5 0-2.3v-.1c0-.3-.1-.5-.3-.7l-2.7-1.9 1.8-4.1 3.2.5c.3 0 .5-.1.7-.3l.2-.2c.5-.6 1-1.1 1.6-1.6l.2-.3c.1-.1.1-.3.1-.4l-.5-3.1 4.2-1.8zm3.8 4.2c-6.2 0-11.2 4.9-11.2 10.9s5 10.9 11.2 10.9 11.2-4.9 11.2-10.9-5-10.9-11.2-10.9zm0 1.5c5.4 0 9.7 4.2 9.7 9.5 0 5.2-4.4 9.5-9.7 9.5-5.4 0-9.7-4.2-9.7-9.5s4.3-9.5 9.7-9.5zm0 1.9c-4.3 0-7.8 3.4-7.8 7.6 0 4.2 3.5 7.6 7.8 7.6s7.8-3.4 7.8-7.6-3.5-7.6-7.8-7.6zm0 1.4c3.5 0 6.3 2.7 6.3 6.1 0 3.4-2.8 6.1-6.3 6.1s-6.3-2.7-6.3-6.1c0-3.3 2.8-6.1 6.3-6.1zm-19.5 15.7c-.1 0-.2 0-.2.1l-2.2.9c-.3.1-.5.5-.5.8l.2 1.1-.1.1-.2.2-1.1-.2c-.3-.1-.7.1-.8.4l-.9 2.1c-.1.3 0 .7.2.9l1 .7v.3l-1 .7c-.3.2-.4.6-.3.9l.9 2.1c.1.3.5.5.8.4l1.2-.2.1.1.1.1-.2 1.2c-.1.3.1.7.4.8l2.2.9c.3.1.7 0 .9-.2l.7-1h.3l.7 1c.2.3.6.4.9.3l2.2-.9c.3-.1.5-.5.5-.8l-.2-1.1.2-.2.1-.1 1.1.2c.3.1.7-.1.8-.4l.9-2.1c.1-.3 0-.7-.2-.9l-.9-.6v-.4l.9-.6c.3-.2.4-.6.3-.9l-.9-2.1c-.1-.3-.5-.5-.8-.4l-1 .2-.1-.1-.2-.2.2-1c.1-.3-.1-.7-.4-.8l-2.2-.9c-.3-.1-.7 0-.9.2l-.6.8h-.5l-.6-.8c-.3-.5-.5-.7-.8-.6zm.2 1.6l.5.7c.2.2.4.3.7.3h.9c.3 0 .5-.1.7-.3l.5-.7 1.1.4-.1.8c0 .3.1.5.3.7l.1.1.6.6c.2.2.4.3.7.3l.9-.1.4 1.1-.7.5c-.2.1-.3.4-.3.7v1c0 .3.1.6.3.7l.7.5-.5 1-.9-.2c-.3 0-.5.1-.7.2l-.6.6-.1.1c-.2.2-.3.4-.3.7l.2.9-1.1.4-.6-.8c-.1-.2-.4-.3-.7-.3h-.9c-.3 0-.5.1-.7.3l-.6.8-1.1-.4.2-1c0-.2 0-.5-.3-.7l-.6-.6v-.1c-.2-.2-.4-.3-.7-.3l-1 .2-.4-1.1.8-.6c.2-.1.3-.4.3-.6v-.9c0-.3-.1-.6-.3-.7l-.8-.6.5-1 1 .2c.3 0 .5-.1.7-.3l.1-.1.6-.6h.1c.2-.2.2-.4.2-.6l-.1-.9 1-.3zm34.4 1.3c-.1 0-.2 0-.2.1l-2.9 1.1c-.3.1-.5.5-.5.8l.3 1.6-.2.2-.3.3-1.6-.3c-.3-.1-.7.1-.8.4l-1.2 2.8c-.1.3 0 .7.2.9l1.4 1v.6l-1.4 1c-.3.2-.4.6-.3.9l1.2 2.8c.1.3.5.5.8.4l1.8-.3.2.3.2.2-.3 1.7c-.1.3.1.7.4.8l2.9 1.2c.3.1.7 0 .9-.2l1-1.4h.6l1 1.4c.2.3.6.4.9.3l2.9-1.1c.3-.1.5-.5.5-.8l-.3-1.6.3-.3.2-.2 1.6.3c.3.1.7-.1.8-.4l1.2-2.8c.1-.3 0-.7-.2-.9l-1.3-.9v-.8l1.3-.9c.3-.2.4-.6.3-.9l-1.2-2.8c-.1-.3-.5-.5-.8-.4l-1.5.2-.2-.3-.4-.4.3-1.5c.1-.3-.1-.7-.4-.8l-2.9-1.2c-.3-.1-.7 0-.9.2l-.9 1.2h-.9l-.9-1.2c-.2-.2-.4-.3-.7-.3zm-32.7 1.2c-1.7 0-3.2 1.4-3.2 3.1 0 1.7 1.4 3.1 3.2 3.1 1.7 0 3.2-1.4 3.2-3.1 0-1.8-1.4-3.1-3.2-3.1zm32.2.4l.8 1.1c.2.2.4.3.7.3h1.4c.3 0 .5-.1.7-.3l.8-1.1 1.8.7-.2 1.3c0 .3.1.5.3.7l.2.1c.3.2.6.5.8.8.2.2.4.3.7.3l1.3-.2.7 1.7-1.1.8c-.2.1-.3.4-.3.7v1.4c0 .3.1.5.3.7l1.1.8-.8 1.7-1.4-.2c-.3 0-.5.1-.7.3-.2.3-.5.5-.8.8l-.1.1c-.2.2-.3.4-.3.7l.2 1.4-1.8.7-.9-1.2c-.1-.2-.4-.3-.7-.3h-1.2c-.3 0-.5.1-.7.3l-.9 1.2-1.8-.7.3-1.5c0-.3-.1-.5-.3-.7-.3-.2-.5-.5-.8-.8l-.1-.1c-.2-.2-.4-.3-.7-.3l-1.6.2-.7-1.7 1.3-.9c.2-.1.3-.4.3-.6v-1.3c0-.3-.1-.6-.3-.7l-1.2-.9.8-1.7 1.5.2c.3 0 .5-.1.7-.3l.1-.1c.2-.3.5-.6.8-.8h.1c.2-.2.2-.4.2-.6l-.2-1.4 1.7-.6zm-32.2 1c.9 0 1.7.7 1.7 1.6 0 .9-.7 1.6-1.7 1.6-.9 0-1.7-.7-1.7-1.6.1-.9.8-1.6 1.7-1.6zm34.4 2.3c-2.5 0-4.5 2-4.5 4.4s2 4.4 4.5 4.4 4.5-2 4.5-4.4-2.1-4.4-4.5-4.4zm0 1.5c1.7 0 3 1.3 3 2.9 0 1.6-1.3 2.9-3 2.9s-3-1.3-3-2.9c-.1-1.6 1.3-2.9 3-2.9zM84.8 674c-2.8 0-4.1 2.2-4.1 4.4v31.5c0 .5.4.9.9.9h12.2c.3 0 .7-.2.8-.5l1.9-3.4h26.3c2.2 0 4.1-1.4 4.5-3.3v-.1l.1-.1c.1-.1.2-.3.2-.5v-24.3c0-1.9-.9-4.6-3.8-4.6h-39zm38.8 2c1.3 0 1.9 1.1 1.9 2.8v23.4H98c-.3 0-.7.2-.8.5l-3.6 6.3h-11v-30.3c0-1.5.8-2.6 2.2-2.6h38.8v-.1zm-24.5 3.9c-1.4 0-2.4 1.1-2.4 2.4v7.7c0 1 .6 1.8 1.5 2.2l.4.1v.2c-.1 4.3 2.6 6.8 5.6 6.8s5.6-2.5 5.3-6.8v-.1h.2c1.1-.2 1.9-1.3 1.9-2.4v-7.7c0-1.3-1-2.4-2.4-2.4H99.1zm10 1.9c.2 0 .5.2.5.6v7.5c0 .4-.3.6-.5.6h-9.9c-.2 0-.5-.2-.5-.6v-7.5c0-.4.3-.6.5-.6h9.9zm-4.5 2.3c-.6 0-1 .4-1 1v1.5c0 .5.4 1 1 1 .5 0 1-.4 1-1v-1.5c0-.5-.4-1-1-1zm3.2 8.3c.2 3.6-1.7 5-3.4 5s-3.7-1.5-3.6-5v-.1l7 .1zm17.5 11.7l-.5.9c-.5.5-1.2.7-2 .1H97l.8-1h27.5zm97.3-36c-.6 0-1 .4-1 1 0 .5.4 1 1 1h3.8c.5 0 1-.4 1-1 0-.5-.4-1-1-1h-3.8zm31.6 0c-.6 0-1 .4-1 1 0 .5.4 1 1 1h3.8c.5 0 1-.4 1-1 0-.5-.4-1-1-1h-3.8zm-32.5 2.9c-1.9 0-3.5 1.5-3.5 3.4V687c0 1.9 1.6 3.4 3.5 3.4h5.4v19.8c0 .5.4.9 1 .9.5 0 1-.4 1-.9v-19.8h30.4c1.9 0 3.5-1.5 3.5-3.4v-12.5c0-1.9-1.6-3.4-3.5-3.4l-37.8-.1zm40.3 3.6v1.3h-41.9v-1.3c0-.9.7-1.6 1.7-1.6h38.5c1-.1 1.7.7 1.7 1.6zm-41.8 2.2h41.9v6.8h-41.9v-6.8zm3.9 2.9c-.6 0-1 .4-1 1 0 .5.4 1 1 1h2.1c.5 0 1-.4 1-1 0-.5-.4-1-1-1h-2.1zm5.4 0c-.6 0-1 .4-1 1 0 .5.4 1 1 1h2.1c.5 0 1-.4 1-1 0-.5-.4-1-1-1h-2.1zm5.3 0c-.6 0-1 .4-1 1 0 .5.4 1 1 1h2.1c.5 0 1-.4 1-1 0-.5-.4-1-1-1h-2.1zm21 0c-.6 0-1 .4-1 1 0 .5.4 1 1 1h2.1c.5 0 1-.4 1-1 0-.5-.4-1-1-1h-2.1zm-35.6 5.8h41.9v1.3c0 .9-.7 1.6-1.7 1.6h-38.5c-.9 0-1.7-.7-1.7-1.6v-1.3zm3.4 8.4h-.2c-5.6 1.3-8.3 6.3-8.2 11 0 4.7 2.8 9.6 8.3 10.5.5.1 1-.2 1.1-.7s-.2-1-.8-1.1c-4.4-.8-6.7-4.6-6.8-8.7 0-4.1 2.3-8.2 6.8-9.3.5-.1.8-.6.7-1.1 0-.4-.4-.7-.9-.6zm9.7 0c-.4 0-.8.3-.9.7-.1.5.2 1 .7 1.1 4.5 1.1 6.8 5.1 6.8 9.3 0 4.1-2.3 8-6.8 8.7-.5.1-.8.6-.8 1.1.1.5.6.8 1.1.7 5.5-1 8.3-5.8 8.3-10.5s-2.7-9.7-8.2-11c0-.1-.1-.1-.2-.1zm-9.2 3.9h-.2c-3.6.9-5.3 4-5.3 7 0 3.1 1.8 6.1 5.3 6.7.5.1 1-.2 1.1-.7s-.2-1-.8-1.1c-2.5-.4-3.8-2.7-3.8-4.9 0-2.3 1.3-4.6 3.8-5.2.5-.1.8-.6.7-1.1 0-.5-.4-.7-.8-.7zm8.8 0c-.4 0-.8.3-.9.7-.1.5.2 1 .7 1.1 2.6.6 3.8 2.9 3.8 5.2s-1.3 4.5-3.8 4.9c-.5.1-.8.6-.8 1.1.1.5.6.8 1.1.7 3.5-.6 5.3-3.6 5.3-6.7 0-3-1.7-6.2-5.3-7h-.1zm-86.4-9.3c-1.9 0-3.3.7-4.1 2-.8 1.2-.9 2.7-.6 4.1.1.4.5.7.9.7h1.7v32.1c0 2 1.7 3.7 3.8 3.7h43.3c2.1 0 3.8-1.6 3.8-3.7v-32.1h3.6c.5 0 .9-.4.9-.9 0-1.2-.1-2.7-.8-3.9-.8-1.3-2.2-2-4.5-2h-48zm48.1 1c1 .2 1.6.3 2.1.6.5.2.8.5 1 .9.4.6.5 1.3.6 2.2v.2h-57.4v-.3c0-.8.1-1.6.5-2.1.5-.7 1.3-1.2 2.8-1.4h50.4v-.1zm-47.7 1c-.6 0-1 .4-1 1 0 .5.4 1 1 1h2.1c.5 0 1-.4 1-1 0-.5-.4-1-1-1h-2.1zm5.3 0c-.6 0-1 .4-1 1 0 .5.4 1 1 1h2.1c.5 0 1-.4 1-1 0-.5-.4-1-1-1h-2.1zm38.2 0c-.6 0-1 .4-1 1 0 .5.4 1 1 1h2.1c.5 0 1-.4 1-1 0-.5-.4-1-1-1h-2.1zm2.9 4.8v32c0 1-.9 1.9-1.9 1.9h-44c-1.1 0-1.9-.8-1.9-1.9v-32h47.8zm-45.9 5v22.9c0 1.7 1.4 3 3.1 3h36.6c1.7 0 3.1-1.4 3.1-3v-22.9c0-1.7-1.4-3-3.1-3h-36.6c-1.7 0-3.1 1.3-3.1 3zm40.9.1v23.7c0 .7-.6 1.2-1.3 1.2h-36.3c-.7 0-1.3-.6-1.3-1.2v-23.7c0-.7.6-1.2 1.3-1.2H187c.7 0 1.3.5 1.3 1.2zm-34.9 1.5v3.4c0 .4.3.7.7.7h8.5c.4 0 .7-.3.7-.7v-3.4c0-.4-.3-.7-.7-.7h-8.5c-.4-.1-.7.3-.7.7zm11 0v3.4c0 .4.3.7.7.7h8.5c.4 0 .7-.3.7-.7v-3.4c0-.4-.3-.7-.7-.7h-8.5c-.4-.1-.7.3-.7.7zm9.9 0v3.4c0 .4.3.7.7.7h8.5c.4 0 .7-.3.7-.7v-3.4c0-.4-.3-.7-.7-.7H175c-.3-.1-.7.3-.7.7zm-11.9 1.2v1.9h-7v-1.9h7zm9.9 0v1.9h-7v-1.9h7zm11 0v1.9h-7v-1.9h7zm-28.8 3.8c-.4.6-.7.9-.7 1.3s.3.7.7.6h8.3c.4.1.7-.2.7-.6 0-.4-.3-.7-.7-1.3h-8.3zm10.5 0c-.4.6-.7.9-.7 1.3s.3.7.7.6h8.3c.4.1.7-.2.7-.6 0-.4-.3-.7-.7-1.3H165zm10.7 0c-.4.6-.7.9-.7 1.3s.3.7.7.6h8.5c.4.1.7-.2.7-.6 0-.4-.3-.7-.7-1.3h-8.5zm-22.3 4.6v10.2c0 .4.3.7.7.7h30.4c.4 0 .7-.3.7-.7v-10.2c0-.4-.3-.7-.7-.7h-30.4c-.4 0-.7.3-.7.7zm29.9.3v8.7h-28.9v-8.7h28.9zm-11.2 1.9c-.4.3-.7.6-.7 1s.3.7.7.9h8.3c.4-.2.7-.5.7-.9s-.3-.7-.7-1h-8.3zm0 2.9c-.4.3-.7.6-.7 1s.3.7.7.9h8.3c.4-.2.7-.5.7-.9s-.3-.7-.7-1h-8.3zm-140.2-30c-7.1 0-12.9 5.6-12.9 12.5v12.3c0 6.5 5.1 11.8 11.7 12.5h.3v.4c.1 5.8 5.3 9.4 10.6 9.6 5.8.3 11.8-3.3 12.7-11.9.8-8.3-2.9-15.7-3.4-23.3-.4-5 1.9-9.2 6.1-8.9l.8.1.7.3c1.7.8 2.5 2.4 2.4 3.8-.1 1.4-1.2 2.8-4 2.6-.5 0-1 .3-1 .8s.4.9.9 1c3.7.2 5.8-1.8 6-4.4.2-2.4-1.5-5-4.5-5.9h-.1c-.6-.1-1.2-.2-1.7-.2H56c-4.9.3-7.4 5.4-7 10.8.6 7.9 4.2 15.1 3.4 23-.8 7.6-6 10.4-10.8 10.2-4.6-.2-8.7-3.2-8.8-7.9v-.2l1.3-.1c6.6-.6 11.7-6 11.7-12.5v-12.3c0-6.9-5.8-12.5-12.9-12.5h-1v.2zm4.1 1.9c3.8 0 6.9 3 6.9 6.7V707l-2.8-.4-3.3-.3-1.9-.1v-3c0-1.1-.9-2-2.1-2h-4.2c-.4 0-.7.3-.7.7v4.3l-1.6.1-3.6.3-2.7.4v-16c0-1.3 1.1-2.4 2.5-2.4l13.5-.1zm-4.1 13.6c.8.4 1.5 1 1 1.8v7.8c.5.8-.2 1.4-1 1h-.4c-.8.4-1.5-.2-1.5-1v-7.8c.1-.8.7-1.4 1.5-1.8h.4zm3 5.3l1.8.1c1.1.1 2.1.2 3.2.3l3 .4v9.8c0 1.9-1.6 3.4-3.5 3.4H31c-6.1 0-11-4.8-11-10.7v-2.5l3.1-.4c1.2-.1 2.3-.2 3.5-.3l1.4-.1v4c0 1.8 1.5 3.2 3.3 3.2h2.6c.6 0 1.1-.5 1.1-1l-.1-6.2zm-1.3-80.1c-.3-.6-.5-.5-.7-.4l-.1.4h-9.9c-.6 0-1 .4-1 1 0 .5.4 1 1 1h10v1h-9.8c-.5-.3-1.2.6-1.2.6v9.1h-1.8c-2.3 0-4.2 1.8-4.2 4.1v16c0 2.3 1.9 4.1 4.2 4.1h1.8v10.7c0 .5.4.9.9.9h31c.5 0 .9-.4.9-.9V664h2.5c2.3-.4 4.2-2.2 4.5-4.5v-16.1c-.3-2.3-4.5-3.6-4.5-3.6h-2.5V631c0-.5-.4-.9-.9-.9h-9v-1h10.6c.5 0 1-.4 1-1 0-.5-.4-1-1-1H45v-.4c-.2-.2-.4-.3-.7.4H33.6v.2zm-.7-.4zm-.1.2zm0 .1zm-.1.2zm11.2.8v1.9h-9v-1.9h9zm-11.2 3.1c0 .5.4.9.9-.1h10.6c.3 1.1.5 1 .7.8l.2-.3v.5h8.7v16.5H23.9v-16.5h8.9v-.5c-.1-.2-.1-.3-.1-.4zm-5.8 2.7c-.6 0-1 .4-1 1 0 .5.4 1 1 1h23.2c.5 0 1-.4 1-1 0-.5-.4-1-1-1H26.9zm0 4.9c-.6 0-1 .4-1 1 0 .5.4 1 1 1h23.2c.5 0 1-.4 1-1 0-.5-.4-1-1-1H26.9zm-5 2.9v7.8c0 .5.4.9.9.9h31c.5 0 .9-.4.9-.9v-7.8h2.6c1.3 0 2.3 1 2.3 2.3v15.8c0 1.3-1 2.3-2.3 2.3h-37c-1.3 0-2.3-1-2.3-2.3v-15.8c0-1.3 1-2.3 2.3-2.3h1.6zm5 1.9c-.6 0-1 .4-1 1 0 .5.4 1 1 1h23.2c.5 0 1-.4 1-1 0-.5-.4-1-1-1H26.9zm-2.3 12.6c-.6 0-1 .4-1 1 0 .5.4 1 1 1h2.1c.5 0 1-.4 1-1 0-.5-.4-1-1-1h-2.1zm5.3 0c-.6 0-1 .4-1 1 0 .5.4 1 1 1H32c.5 0 1-.4 1-1 0-.5-.4-1-1-1h-2.1zm20.9 0c-.6 0-1 .4-1 1 0 .5.4 1 1 1h2.1c.5 0 1-.4 1-1 0-.5-.4-1-1-1h-2.1zm3 7.7v9.7H23.9V664h29.9zM88 610.9c-.8 0-1.2.8-.8 1.4l.2.3c3.1 4.2 8.2 7.1 14.1 7.4v5.7c-12.2.6-21.9 9.8-21.9 21.1 0 .5.4.9.9.9h3.7v.8c.9 8.5 8.8 15.1 18.3 15.1s17.4-6.6 18.3-15.1v-.8h3.7c.5 0 .9-.4.9-.9 0-11.3-9.7-20.5-21.9-21.1h-.3v-5.6h.3c5.9-.3 11-3.2 14.1-7.4l.2-.3c.4-.6 0-1.4-.8-1.4H88v-.1zm27 1.9l-.3.3c-2.8 3.2-7 5.2-11.6 5.2-4.7 0-8.8-2-11.6-5.2l-.3-.3H115zm-11.9 14.7c10.2 0 18.6 7.6 19.6 17.2l.1 1.1h-2.5v-.8c-.9-8.5-8.3-15.1-17.2-15.1s-16.3 6.6-17.2 15.1v.8h-2.5l.1-1.1c1-9.7 9.4-17.2 19.6-17.2zm0 4c8.5 0 15.4 6.7 15.4 15s-6.9 15-15.4 15-15.4-6.7-15.4-15 6.9-15 15.4-15zm0 3.3c-6.7 0-12.1 5.2-12.1 11.7s5.4 11.7 12.1 11.7c6.6 0 12-5.2 12-11.7s-5.4-11.7-12-11.7zm0 1.8c5.6 0 10.2 4.4 10.2 9.9s-4.6 9.9-10.2 9.9-10.2-4.4-10.2-9.9 4.6-9.9 10.2-9.9zm0 1.4c-4.8 0-8.8 3.8-8.8 8.5s3.9 8.5 8.8 8.5c4.8 0 8.8-3.8 8.8-8.5s-4-8.5-8.8-8.5zm0 1.8c3.8 0 6.9 3 6.9 6.7s-3.1 6.7-6.9 6.7-6.9-3-6.9-6.7 3.1-6.7 6.9-6.7zm-4.5 5.7c-.5 0-.9.4-.9.9-.1 1.7.8 3.2 2 4.1 1.2.9 2.9 1.3 4.5.8.5-.2.8-.7.6-1.1s-.7-.7-1.2-.6c-.9.3-1.9.1-2.7-.5-.8-.6-1.3-1.5-1.3-2.5.1-.6-.3-1-1-1.1.1 0 .1 0 0 0zm61.1-17.6h-.1c-1.6 0-3 1.1-3.3 3v.3h-2.5c-2.2 0-4.3 1.5-4.3 3.7v31.3c0 1.6 1.1 2.9 2.7 3.4l.3.1v7.1c0 .5.4.9.9.9h13.1c.5 0 .9-.4.9-.9v-6.9h.4c2-.3 3.6-1.7 3.6-3.6V635c0-2.2-2.1-3.7-4.5-3.7h-3.7l-.1-.4c-.5-2-1.9-3-3.4-3zm.1 1.8c.3 0 .6.1.9.4.1.2.3.4.4.6l.1.4h-2.8l.1-.4c.3-.6.9-1 1.3-1zm20.8 1.5c-2.2 0-4.3 1.6-4.3 3.7v14.7c0 .5.4.9.9.9h20.1c.5 0 .9-.4.9-.9v-14.7c0-2.2-2-3.7-4.3-3.7h-13.3zm.1 1.9H194c1.4 0 2.3 1 2.3 1.9v13.6h-17.9V635c-.1-.9.9-1.9 2.3-1.9zm-13.7 0c1.4 0 2.3.9 2.3 1.9v31.1c0 .9-.9 1.9-2.3 1.9h-13.3c-1.4 0-2.3-.9-2.3-1.9V635c0-.9.9-1.9 2.3-1.9H167zm-13.6 1.8c-.6 0-1 .4-1 1v29.8c0 .5.4 1 1 1 .5 0 1-.4 1-1v-29.8c0-.6-.4-1-1-1zm26.4 9.8c-.6 0-1 .4-1 1 0 .5.4 1 1 1h14.3c.6 0 1-.4 1-1 0-.5-.4-1-1-1h-14.3zm-14.4 25.2v5.8h-11v-5.8h11zm-9.6 2c-.6 0-1 .4-1 1 0 .5.4 1 1 1h2.1c.5 0 1-.4 1-1 0-.5-.4-1-1-1h-2.1zm5.4 0c-.6 0-1 .4-1 1 0 .5.4 1 1 1h2.1c.5 0 1-.4 1-1 0-.5-.4-1-1-1h-2.1zm80.7-64c-8.9 0-17.4 4.6-22 12.7-6.6 11.8-2 26.5 10.1 32.9s27.3 2 33.9-9.8 2-26.5-10.1-32.9c-3.8-2-7.8-2.9-11.9-2.9zm0 1.8c3.7 0 7.5.9 11 2.7 11.2 5.9 15.4 19.5 9.3 30.4s-20.1 15-31.3 9.1-15.4-19.5-9.3-30.4c4.2-7.5 12.1-11.8 20.3-11.8zm2.5 3.5c-.4 0-.8.4-.8.8-.1.5.3.9.8 1h.4c2 .3 4 .9 5.9 1.9 3.2 1.7 5.7 4.2 7.2 7.2l.6 1.3.5 1.4c.2.5.7.7 1.2.6.5-.2.7-.7.6-1.2l-.5-1.4c-1.6-3.9-4.6-7.2-8.6-9.4-2.1-1.1-4.3-1.8-6.5-2.1h-.4c-.3-.1-.3-.1-.4-.1zm-.7 5.1c-.4 0-.8.3-.9.8s.3 1 .8 1l.8.1.8.2c.8.2 1.7.6 2.5 1 2.3 1.2 4 3 5.1 5.1l.4.9.3.8c.2.5.7.7 1.2.6.5-.2.7-.7.6-1.2l-.3-.8c-1.2-2.9-3.4-5.4-6.4-7-1.2-.6-2.5-1.1-3.8-1.4h-.1l-.9-.1h-.1zm-1.8 4.3c-3.5 0-6.9 1.8-8.6 5-2.6 4.6-.8 10.4 4 12.9s10.7.8 13.3-3.9c2.6-4.6.8-10.4-4-12.9-1.5-.7-3.1-1.1-4.7-1.1zm0 1.8c1.3 0 2.6.3 3.8.9 3.9 2 5.3 6.7 3.2 10.5-2.1 3.8-6.9 5.2-10.8 3.1-3.9-2-5.3-6.7-3.2-10.5 1.5-2.5 4.2-4 7-4zm.1 3.8c-1.4 0-2.8.8-3.6 2.1-1.1 1.9-.3 4.3 1.6 5.4 2 1 4.5.3 5.5-1.6 1.1-1.9.3-4.3-1.6-5.4-.6-.4-1.3-.5-1.9-.5zm.2 1.8c.3 0 .6.1.8.2 1.1.6 1.5 1.9.9 2.9s-1.9 1.4-3 .9c-1.1-.6-1.5-1.9-.9-2.9.4-.7 1.3-1.2 2.2-1.1zm-12.8 5.3c-.1 0-.2 0-.4.1-.5.2-.7.7-.6 1.2l.3.8c1.2 2.9 3.4 5.4 6.4 7 1.2.7 2.5 1.1 3.8 1.4h.1l.9.1c.5.1 1-.3 1.1-.8s-.3-1-.8-1l-.9-.1-.8-.2c-.8-.2-1.7-.6-2.5-1-2.3-1.2-4-3-5.1-5.1l-.4-.9-.3-.8c-.1-.4-.4-.7-.8-.7zm-5.3 1.4c-.1 0-.2 0-.4.1-.5.2-.7.7-.6 1.2l.5 1.4c1.6 3.9 4.6 7.2 8.6 9.4 2.1 1.1 4.3 1.8 6.5 2.1h.4c.5.1 1-.3 1-.8.1-.5-.3-.9-.8-1h-.4c-2-.3-4-.9-5.9-1.9-3.2-1.7-5.7-4.2-7.2-7.2l-.6-1.3-.5-1.4c.1-.3-.2-.5-.6-.6zM91.6 720.6c-1.7 0-2.9 1.5-2.9 3.1v44.2c0 1.6 1.2 3.1 2.9 3.1h25c1.7 0 2.9-1.5 2.9-3.1v-44.2c0-1.6-1.2-3.1-2.9-3.1h-25zm24.9 1c.5 0 1.1.5 1.1 1.3v44.9c0 .8-.6 1.3-1.1 1.3H91.7c-.5 0-1.1-.5-1.1-1.3v-44.9c0-.8.6-1.3 1.1-1.3h24.8zm-21.8 1.8c-.6 0-1 .4-1 1v3.8c0 .5.4 1 1 1 .5 0 1-.4 1-1v-3.8c-.1-.6-.5-1-1-1zm2.9 0c-.6 0-1 .4-1 1v3.8c0 .5.4 1 1 1 .5 0 1-.4 1-1v-3.8c0-.6-.4-1-1-1zm3 0c-.6 0-1 .4-1 1v3.8c0 .5.4 1 1 1 .5 0 1-.4 1-1v-3.8c0-.6-.4-1-1-1zm3 0c-.6 0-1 .4-1 1v3.8c0 .5.4 1 1 1 .5 0 1-.4 1-1v-3.8c0-.6-.4-1-1-1zm4 0c-.6 0-1 .4-1 1v3.8c0 .5.4 1 1 1 .5 0 1-.4 1-1v-3.8c0-.6-.4-1-1-1zm3 0c-.6 0-1 .4-1 1v3.8c0 .5.4 1 1 1 .5 0 1-.4 1-1v-3.8c0-.6-.5-1-1-1zm3 0c-.6 0-1 .4-1 1v3.8c0 .5.4 1 1 1 .5 0 1-.4 1-1v-3.8c0-.6-.5-1-1-1zm-19 6.9c-1.7 0-2.9 1.5-2.9 3.1v5.4c0 1.6 1.2 3.1 2.9 3.1h19c1.7 0 2.9-1.5 2.9-3.1v-5.4c0-1.6-1.2-3.1-2.9-3.1h-19zm18.9 2c.5 0 1.1.5 1.1 1.3v5.2c0 .8-.6 1.3-1.1 1.3H94.7c-.5 0-1.1-.5-1.1-1.3v-5.2c0-.8.6-1.3 1.1-1.3h18.8zm-11.9 1.9c-.6 0-1 .3-1 .7v2.8c0 .4.4.7 1 .7.5 0 1-.3 1-.7v-2.8c0-.4-.4-.7-1-.7zm4 0c-.6 0-1 .3-1 .7v2.8c0 .4.4.7 1 .7.5 0 1-.3 1-.7v-2.8c0-.4-.4-.7-1-.7zm3 0c-.6 0-1 .3-1 .7v2.8c0 .4.4.7 1 .7.5 0 1-.3 1-.7v-2.8c0-.4-.4-.7-1-.7zm3 0c-.6 0-1 .3-1 .7v2.8c0 .4.4.7 1 .7.5 0 1-.3 1-.7v-2.8c0-.4-.5-.7-1-.7zm-15.4 1c-.6 0-1 .4-1 1 0 .5.4 1 1 1h1.9c.5 0 1-.4 1-1 0-.5-.4-1-1-1h-1.9zm-1.6 8.7c-1.7 0-2.9 1.5-2.9 3.1v5.4c0 1.6 1.2 3.1 2.9 3.1h19c1.7 0 2.9-1.5 2.9-3.1V747c0-1.6-1.2-3.1-2.9-3.1h-19zm18.9 1.9c.5 0 1.1.5 1.1 1.3v5.2c0 .8-.6 1.3-1.1 1.3H94.7c-.5 0-1.1-.5-1.1-1.3v-5.2c0-.8.6-1.3 1.1-1.3h18.8zm-11.9 1.4c-.6 0-1 .3-1 .7v2.8c0 .4.4.7 1 .7.5 0 1-.3 1-.7v-2.8c0-.4-.4-.7-1-.7zm4 0c-.6 0-1 .3-1 .7v2.8c0 .4.4.7 1 .7.5 0 1-.3 1-.7v-2.8c0-.4-.4-.7-1-.7zm3 0c-.6 0-1 .3-1 .7v2.8c0 .4.4.7 1 .7.5 0 1-.3 1-.7v-2.8c0-.4-.4-.7-1-.7zm3 0c-.6 0-1 .3-1 .7v2.8c0 .4.4.7 1 .7.5 0 1-.3 1-.7v-2.8c0-.4-.5-.7-1-.7zm-15.4 1.5c-.6 0-1 .4-1 1 0 .5.4 1 1 1h1.9c.5 0 1-.4 1-1 0-.5-.4-1-1-1h-1.9zm-1.6 7.8c-1.7 0-2.9 1.5-2.9 3.1v5.4c0 1.6 1.2 3.1 2.9 3.1h19c1.7 0 2.9-1.5 2.9-3.1v-5.4c0-1.6-1.2-3.1-2.9-3.1h-19zm18.9 1.9c.5 0 1.1.5 1.1 1.3v5.2c0 .8-.6 1.3-1.1 1.3H94.7c-.5 0-1.1-.5-1.1-1.3v-5.2c0-.8.6-1.3 1.1-1.3h18.8zm-11.9 2.1c-.6 0-1 .3-1 .7v2.8c0 .4.4.7 1 .7.5 0 1-.3 1-.7v-2.8c0-.4-.4-.7-1-.7zm4 0c-.6 0-1 .3-1 .7v2.8c0 .4.4.7 1 .7.5 0 1-.3 1-.7v-2.8c0-.4-.4-.7-1-.7zm3 0c-.6 0-1 .3-1 .7v2.8c0 .4.4.7 1 .7.5 0 1-.3 1-.7v-2.8c0-.4-.4-.7-1-.7zm3 0c-.6 0-1 .3-1 .7v2.8c0 .4.4.7 1 .7.5 0 1-.3 1-.7v-2.8c0-.4-.5-.7-1-.7zm-15.4.8c-.6 0-1 .4-1 1 0 .5.4 1 1 1h1.9c.5 0 1-.4 1-1 0-.5-.4-1-1-1h-1.9z" id="Layer_1"/></g></g></svg>